REM DIRINDEX 1\2,1\4,1\5,1\6,1\7,1\3\8,1\3\9,1\3\10
REM DIRNAME cjc113,folder01,folder02,folder03,folder04,folder05,folder06,folder07,folder08,folder09
TITLE ""
FILE "DB4500_5th_2A_39.mp3" MP3
  TRACK 01 AUDIO
    TITLE "0:"
    INDEX 01 00:00:00
  TRACK 02 AUDIO
    TITLE "8:cjc113_1458"
    INDEX 01 00:00:03
  TRACK 03 AUDIO
    TITLE "0:"
    INDEX 01 00:01:21
  TRACK 04 AUDIO
    TITLE "9:cjc113_1459"
    INDEX 01 00:01:40
  TRACK 05 AUDIO
    TITLE "0:"
    INDEX 01 00:02:55
  TRACK 06 AUDIO
    TITLE "10:cjc113_1460"
    INDEX 01 00:03:02
  TRACK 07 AUDIO
    TITLE "0:"
    INDEX 01 00:06:57
  TRACK 08 AUDIO
    TITLE "8:cjc113_1461"
    INDEX 01 00:07:27
  TRACK 09 AUDIO
    TITLE "0:"
    INDEX 01 00:09:00
  TRACK 10 AUDIO
    TITLE "9:cjc113_1462"
    INDEX 01 00:09:24
  TRACK 11 AUDIO
    TITLE "0:"
    INDEX 01 00:10:51
  TRACK 12 AUDIO
    TITLE "10:cjc113_1463"
    INDEX 01 00:10:74
  TRACK 13 AUDIO
    TITLE "0:"
    INDEX 01 00:15:15
  TRACK 14 AUDIO
    TITLE "8:cjc113_1464"
    INDEX 01 00:15:62
  TRACK 15 AUDIO
    TITLE "0:"
    INDEX 01 00:16:69
  TRACK 16 AUDIO
    TITLE "9:cjc113_1465"
    INDEX 01 00:17:18
  TRACK 17 AUDIO
    TITLE "0:"
    INDEX 01 00:18:54
  TRACK 18 AUDIO
    TITLE "10:cjc113_1466"
    INDEX 01 00:19:03
  TRACK 19 AUDIO
    TITLE "0:"
    INDEX 01 00:22:60
  TRACK 20 AUDIO
    TITLE "8:cjc113_1467"
    INDEX 01 00:23:34
  TRACK 21 AUDIO
    TITLE "0:"
    INDEX 01 00:24:51
  TRACK 22 AUDIO
    TITLE "9:cjc113_1468"
    INDEX 01 00:24:74
  TRACK 23 AUDIO
    TITLE "0:"
    INDEX 01 00:26:24
  TRACK 24 AUDIO
    TITLE "10:cjc113_1469"
    INDEX 01 00:26:46
  TRACK 25 AUDIO
    TITLE "0:"
    INDEX 01 00:29:64
  TRACK 26 AUDIO
    TITLE "8:cjc113_1470"
    INDEX 01 00:30:36
  TRACK 27 AUDIO
    TITLE "0:"
    INDEX 01 00:31:49
  TRACK 28 AUDIO
    TITLE "9:cjc113_1471"
    INDEX 01 00:31:71
  TRACK 29 AUDIO
    TITLE "0:"
    INDEX 01 00:33:22
  TRACK 30 AUDIO
    TITLE "10:cjc113_1472"
    INDEX 01 00:33:44
  TRACK 31 AUDIO
    TITLE "0:"
    INDEX 01 00:36:54
  TRACK 32 AUDIO
    TITLE "8:cjc113_1473"
    INDEX 01 00:37:28
  TRACK 33 AUDIO
    TITLE "0:"
    INDEX 01 00:38:51
  TRACK 34 AUDIO
    TITLE "9:cjc113_1474"
    INDEX 01 00:38:73
  TRACK 35 AUDIO
    TITLE "0:"
    INDEX 01 00:40:30
  TRACK 36 AUDIO
    TITLE "10:cjc113_1475"
    INDEX 01 00:40:50
  TRACK 37 AUDIO
    TITLE "0:"
    INDEX 01 00:44:09
  TRACK 38 AUDIO
    TITLE "8:cjc113_1476"
    INDEX 01 00:44:60
  TRACK 39 AUDIO
    TITLE "0:"
    INDEX 01 00:46:00
  TRACK 40 AUDIO
    TITLE "9:cjc113_1477"
    INDEX 01 00:46:21
  TRACK 41 AUDIO
    TITLE "0:"
    INDEX 01 00:47:54
  TRACK 42 AUDIO
    TITLE "10:cjc113_1478"
    INDEX 01 00:48:00
  TRACK 43 AUDIO
    TITLE "0:"
    INDEX 01 00:51:15
  TRACK 44 AUDIO
    TITLE "8:cjc113_1479"
    INDEX 01 00:51:62
  TRACK 45 AUDIO
    TITLE "0:"
    INDEX 01 00:52:63
  TRACK 46 AUDIO
    TITLE "9:cjc113_1480"
    INDEX 01 00:53:08
  TRACK 47 AUDIO
    TITLE "0:"
    INDEX 01 00:54:54
  TRACK 48 AUDIO
    TITLE "10:cjc113_1481"
    INDEX 01 00:55:03
  TRACK 49 AUDIO
    TITLE "0:"
    INDEX 01 00:57:64
  TRACK 50 AUDIO
    TITLE "8:cjc113_1482"
    INDEX 01 00:58:34
  TRACK 51 AUDIO
    TITLE "0:"
    INDEX 01 00:59:49
  TRACK 52 AUDIO
    TITLE "9:cjc113_1483"
    INDEX 01 00:59:69
  TRACK 53 AUDIO
    TITLE "0:"
    INDEX 01 01:01:27
  TRACK 54 AUDIO
    TITLE "10:cjc113_1484"
    INDEX 01 01:01:48
  TRACK 55 AUDIO
    TITLE "0:"
    INDEX 01 01:04:21
  TRACK 56 AUDIO
    TITLE "8:cjc113_1485"
    INDEX 01 01:04:60
  TRACK 57 AUDIO
    TITLE "0:"
    INDEX 01 01:05:71
  TRACK 58 AUDIO
    TITLE "9:cjc113_1486"
    INDEX 01 01:06:16
  TRACK 59 AUDIO
    TITLE "0:"
    INDEX 01 01:07:19
  TRACK 60 AUDIO
    TITLE "10:cjc113_1487"
    INDEX 01 01:07:39
  TRACK 61 AUDIO
    TITLE "0:"
    INDEX 01 01:10:06
  TRACK 62 AUDIO
    TITLE "8:cjc113_1488"
    INDEX 01 01:10:53
  TRACK 63 AUDIO
    TITLE "0:"
    INDEX 01 01:11:72
  TRACK 64 AUDIO
    TITLE "9:cjc113_1489"
    INDEX 01 01:12:13
  TRACK 65 AUDIO
    TITLE "0:"
    INDEX 01 01:13:36
  TRACK 66 AUDIO
    TITLE "10:cjc113_1490"
    INDEX 01 01:13:55
  TRACK 67 AUDIO
    TITLE "0:"
    INDEX 01 01:17:06
  TRACK 68 AUDIO
    TITLE "8:cjc113_1491"
    INDEX 01 01:17:51
  TRACK 69 AUDIO
    TITLE "0:"
    INDEX 01 01:18:60
  TRACK 70 AUDIO
    TITLE "9:cjc113_1492"
    INDEX 01 01:19:01
  TRACK 71 AUDIO
    TITLE "0:"
    INDEX 01 01:20:18
  TRACK 72 AUDIO
    TITLE "10:cjc113_1493"
    INDEX 01 01:20:36
  TRACK 73 AUDIO
    TITLE "0:"
    INDEX 01 01:22:72
  TRACK 74 AUDIO
    TITLE "8:cjc113_1494"
    INDEX 01 01:23:42
  TRACK 75 AUDIO
    TITLE "0:"
    INDEX 01 01:24:51
  TRACK 76 AUDIO
    TITLE "9:cjc113_1495"
    INDEX 01 01:24:71
  TRACK 77 AUDIO
    TITLE "0:"
    INDEX 01 01:26:19
  TRACK 78 AUDIO
    TITLE "10:cjc113_1496"
    INDEX 01 01:26:38
  TRACK 79 AUDIO
    TITLE "0:"
    INDEX 01 01:30:30
  TRACK 80 AUDIO
    TITLE "8:cjc113_1497"
    INDEX 01 01:30:71
  TRACK 81 AUDIO
    TITLE "0:"
    INDEX 01 01:32:00
  TRACK 82 AUDIO
    TITLE "9:cjc113_1498"
    INDEX 01 01:32:17
  TRACK 83 AUDIO
    TITLE "0:"
    INDEX 01 01:33:54
  TRACK 84 AUDIO
    TITLE "10:cjc113_1499"
    INDEX 01 01:34:01
  TRACK 85 AUDIO
    TITLE "0:"
    INDEX 01 01:36:48
  TRACK 86 AUDIO
    TITLE "8:cjc113_1500"
    INDEX 01 01:37:15
  TRACK 87 AUDIO
    TITLE "0:"
    INDEX 01 01:38:22
  TRACK 88 AUDIO
    TITLE "9:cjc113_1501"
    INDEX 01 01:38:38
  TRACK 89 AUDIO
    TITLE "0:"
    INDEX 01 01:39:51
  TRACK 90 AUDIO
    TITLE "10:cjc113_1502"
    INDEX 01 01:39:68
  TRACK 91 AUDIO
    TITLE "0:"
    INDEX 01 01:42:69
